<?xml version="1.0" encoding="UTF-8"?>
<svg id="Layer_2" xmlns="http://www.w3.org/2000/svg" width="71.52" height="60.47" viewBox="0 0 71.52 60.47">
  <defs>
    <style>
      .cls-1 {
        fill: #e52a34;
      }

      .cls-2 {
        fill: #33368b;
      }
    </style>
  </defs>
  <g id="Layer_1-2" data-name="Layer_1">
    <g>
      <g>
        <polygon class="cls-1" points="31.19 19.36 27.51 19.99 31.19 20.63 34.87 19.99 31.19 19.36"/>
        <polygon class="cls-1" points="31.82 19.99 31.19 16.32 30.56 19.99 31.19 23.67 31.82 19.99"/>
      </g>
      <polygon class="cls-2" points="41.07 15.09 71.52 47.29 0 38.48 44.24 29.7 41.07 15.09"/>
      <g>
        <rect class="cls-2" x="39.06" y="7.04" width=".64" height="3.21"/>
        <rect class="cls-2" x="35.35" y="7.37" width=".64" height="3.21" transform="translate(-1.02 6.32) rotate(-9.99)"/>
        <rect class="cls-2" x="31.75" y="8.33" width=".64" height="3.21" transform="translate(-1.47 11.57) rotate(-20)"/>
        <rect class="cls-2" x="28.37" y="9.91" width=".64" height="3.21" transform="translate(-1.91 15.89) rotate(-30.01)"/>
        <rect class="cls-2" x="25.32" y="12.04" width=".64" height="3.21" transform="translate(-2.77 19.68) rotate(-40)"/>
        <rect class="cls-2" x="22.69" y="14.68" width=".64" height="3.21" transform="translate(-4.25 23.45) rotate(-50.01)"/>
        <rect class="cls-2" x="20.55" y="17.73" width=".64" height="3.21" transform="translate(-6.31 27.75) rotate(-60)"/>
        <rect class="cls-2" x="18.98" y="21.11" width=".64" height="3.21" transform="translate(-8.64 33.08) rotate(-70)"/>
        <polygon class="cls-2" points="19.86 26.9 16.7 26.35 16.81 25.72 19.97 26.27 19.86 26.9"/>
        <rect class="cls-2" x="24.04" y="46.07" width="3.21" height=".64" transform="translate(-26.37 36.19) rotate(-49.97)"/>
        <rect class="cls-2" x="27.09" y="48.21" width="3.21" height=".64" transform="translate(-27.68 49.15) rotate(-60.03)"/>
        <polygon class="cls-2" points="31.83 51.72 31.22 51.5 32.32 48.48 32.93 48.7 31.83 51.72"/>
        <polygon class="cls-2" points="35.71 52.7 35.08 52.59 35.64 49.43 36.27 49.54 35.71 52.7"/>
        <rect class="cls-2" x="39.06" y="49.78" width=".64" height="3.21"/>
        <rect class="cls-2" x="42.78" y="49.46" width=".64" height="3.21" transform="translate(-8.22 8.26) rotate(-10)"/>
        <polygon class="cls-2" points="46.94 51.72 45.84 48.7 46.44 48.48 47.54 51.5 46.94 51.72"/>
        <rect class="cls-2" x="49.75" y="46.92" width=".64" height="3.21" transform="translate(-17.55 31.53) rotate(-30)"/>
        <rect class="cls-2" x="59.15" y="29.7" width="3.21" height=".64"/>
        <polygon class="cls-2" points="58.9 26.9 58.79 26.27 61.95 25.71 62.07 26.34 58.9 26.9"/>
        <polygon class="cls-2" points="58.06 23.56 57.84 22.96 60.86 21.86 61.08 22.46 58.06 23.56"/>
        <rect class="cls-2" x="56.28" y="19.01" width="3.21" height=".64" transform="translate(-1.92 31.5) rotate(-29.97)"/>
        <rect class="cls-2" x="54.14" y="15.96" width="3.21" height=".64" transform="translate(2.59 39.68) rotate(-40.03)"/>
        <rect class="cls-2" x="51.51" y="13.33" width="3.21" height=".64" transform="translate(8.5 45.54) rotate(-49.97)"/>
        <rect class="cls-2" x="48.46" y="11.19" width="3.21" height=".64" transform="translate(15.11 49.15) rotate(-60.07)"/>
        <rect class="cls-2" x="45.08" y="9.62" width="3.21" height=".64" transform="translate(21.37 50.4) rotate(-69.99)"/>
        <rect class="cls-2" x="41.48" y="8.65" width="3.21" height=".64" transform="translate(26.79 49.86) rotate(-80.02)"/>
      </g>
      <g>
        <polygon class="cls-2" points="39.38 0 37.54 4.15 39.38 3.06 41.23 4.15 39.38 0"/>
        <polygon class="cls-2" points="39.38 60.47 37.54 56.32 39.38 57.42 41.23 56.32 39.38 60.47"/>
      </g>
      <g>
        <polygon class="cls-2" points="69.62 30.24 65.47 28.39 66.56 30.24 65.47 32.08 69.62 30.24"/>
        <polygon class="cls-2" points="9.15 30.24 13.3 28.39 12.2 30.24 13.3 32.08 9.15 30.24"/>
      </g>
    </g>
  </g>
</svg>